<?xml version="1.0" encoding="iso-8859-1"?>
<!-- Generator: Adobe Illustrator 16.0.0, SVG Export Plug-In . SVG Version: 6.00 Build 0)  -->
<!DOCTYPE svg PUBLIC "-//W3C//DTD SVG 1.1//EN" "http://www.w3.org/Graphics/SVG/1.1/DTD/svg11.dtd">
<svg version="1.1" id="Capa_1" xmlns="http://www.w3.org/2000/svg" xmlns:xlink="http://www.w3.org/1999/xlink" x="0px" y="0px"
	 width="984px" height="984px" viewBox="0 0 984 984" style="enable-background:new 0 0 984 984;" xml:space="preserve">
<g>
	<path d="M532.5,40c0-22.1-17.899-40-40-40c-22.1,0-40,17.9-40,40v32.7h80V40z"/>
	<path d="M971.1,189.6c0-33.1-26.9-60-60-60H72.9c-33.1,0-60,26.9-60,60v442.5c0,33.101,26.9,60,60,60h838.2c33.1,0,60-26.899,60-60
		V189.6z"/>
	<path d="M887,792c0-21-16.1-38.2-36.7-39.9c-1.1-0.1-2.199-0.1-3.3-0.1H721h-90.8h-97.7h-80h-98.7H262.9H137
		c-1.1,0-2.2,0.1-3.3,0.1C113.2,753.8,97,771,97,792c0,22.1,17.9,40,40,40h82.9l-50.1,93c-10.5,19.5-3.2,43.7,16.3,54.2
		c6,3.199,12.5,4.8,18.9,4.8c14.2,0,28-7.601,35.3-21l70.5-131H452.6v112c0,22.1,17.899,40,40,40c22.1,0,40-17.9,40-40V832h140.8
		l70.5,131c7.2,13.399,21,21,35.3,21c6.4,0,12.9-1.5,18.9-4.8c19.5-10.5,26.699-34.7,16.3-54.2l-50.101-93h82.9
		C869.1,832,887,814,887,792z"/>
</g>
<g>
</g>
<g>
</g>
<g>
</g>
<g>
</g>
<g>
</g>
<g>
</g>
<g>
</g>
<g>
</g>
<g>
</g>
<g>
</g>
<g>
</g>
<g>
</g>
<g>
</g>
<g>
</g>
<g>
</g>
</svg>
