<?xml version="1.0" encoding="iso-8859-1"?>
<!-- Generator: Adobe Illustrator 19.0.0, SVG Export Plug-In . SVG Version: 6.00 Build 0)  -->
<svg version="1.1" id="Layer_1" xmlns="http://www.w3.org/2000/svg" xmlns:xlink="http://www.w3.org/1999/xlink" x="0px" y="0px"
	 viewBox="0 0 512.051 512.051" style="enable-background:new 0 0 512.051 512.051;" xml:space="preserve">
<g>
	<g>
		<g>
			<path d="M256.026,102.4c9.412,0,17.067-7.654,17.067-17.067c0-9.412-7.654-17.067-17.067-17.067
				c-9.412,0-17.067,7.654-17.067,17.067C238.959,94.746,246.613,102.4,256.026,102.4z"/>
			<path d="M298.692,307.2h-17.067c-4.719,0-8.533-3.814-8.533-8.533V162.176c0-4.727-3.849-8.576-8.576-8.576h-34.091
				c-4.71,0-8.533,3.823-8.533,8.533c0,4.71,3.823,8.533,8.533,8.533h17.067c4.719,0,8.533,3.814,8.533,8.533v119.467
				c0,4.719-3.814,8.533-8.533,8.533h-17.067c-4.71,0-8.533,3.823-8.533,8.533s3.823,8.533,8.533,8.533h68.267
				c4.71,0,8.533-3.823,8.533-8.533S303.403,307.2,298.692,307.2z"/>
			<path d="M332.826,0h-153.6C113.348,0,59.759,53.589,59.759,119.467v153.6c0,65.877,53.589,119.467,119.467,119.467h28.032
				c8.064,0,14.635,6.571,14.635,14.635v84.403c0,9.088,5.589,16.725,14.251,19.482c2.125,0.674,4.267,0.998,6.374,0.998
				c6.468,0,12.552-3.089,16.512-8.695l52.489-74.368c13.969-19.806,34.133-34.432,58.3-42.291
				c49.331-16.051,82.475-61.722,82.475-113.63v-153.6C452.292,53.589,398.703,0,332.826,0z M256.026,51.2
				c18.825,0,34.133,15.309,34.133,34.133c0,18.825-15.309,34.133-34.133,34.133s-34.133-15.309-34.133-34.133
				C221.892,66.509,237.201,51.2,256.026,51.2z M298.692,341.333h-68.267c-14.114,0-25.6-11.486-25.6-25.6s11.486-25.6,25.6-25.6
				h8.533v-102.4h-8.533c-14.114,0-25.6-11.486-25.6-25.6s11.486-25.6,25.6-25.6h34.091c14.14,0,25.643,11.503,25.643,25.643
				v127.957h8.533c14.114,0,25.6,11.486,25.6,25.6S312.806,341.333,298.692,341.333z"/>
		</g>
	</g>
</g>
<g>
</g>
<g>
</g>
<g>
</g>
<g>
</g>
<g>
</g>
<g>
</g>
<g>
</g>
<g>
</g>
<g>
</g>
<g>
</g>
<g>
</g>
<g>
</g>
<g>
</g>
<g>
</g>
<g>
</g>
</svg>
